<?xml version="1.0" encoding="UTF-8"?>
<!DOCTYPE svg PUBLIC "-//W3C//DTD SVG 1.1//EN" "http://www.w3.org/Graphics/SVG/1.1/DTD/svg11.dtd">
<!-- Creator: CorelDRAW 2021 (64-Bit Evaluation Version) -->
<svg xmlns="http://www.w3.org/2000/svg" xml:space="preserve" width="210mm" height="297mm" version="1.1" style="shape-rendering:geometricPrecision; text-rendering:geometricPrecision; image-rendering:optimizeQuality; fill-rule:evenodd; clip-rule:evenodd"
viewBox="0 0 21000 29700"
 xmlns:xlink="http://www.w3.org/1999/xlink"
 xmlns:xodm="http://www.corel.com/coreldraw/odm/2003">
 <defs>
  <style type="text/css">
   <![CDATA[
    .fil0 {fill:white;fill-rule:nonzero}
   ]]>
  </style>
 </defs>
 <g id="Layer_x0020_1">
  <metadata id="CorelCorpID_0Corel-Layer"/>
  <path class="fil0" d="M14477.42 20642.72l-168.38 -2308.97 2300.92 -351.54c-467.29,1049.97 -1206.71,1972.52 -2132.54,2660.51zm-4374.7 -3073.96l2695.33 0 1082.68 4741.05 -3778.01 -4741.05zm397.27 4386.96c-577.22,0 -1146.49,-73.51 -1698.2,-218.26l1698.2 -1569.37 1698.23 1569.37c-551.7,144.75 -1120.98,218.26 -1698.23,218.26zm0 -3023.34l1517.97 1904.69 -1517.97 -1402.79 -1517.93 1402.79 1517.93 -1904.69zm-2027.98 -2545.18l1683.45 2112.82 -3036.21 3809.79 1352.76 -5922.61zm-4081.96 1595.01l2300.93 351.54 -168.39 2309.04c-925.61,-687.77 -1665.14,-1610.39 -2132.54,-2660.58zm2727.19 1915.83l147.42 -2021.8 -2012.49 -307.48 2396.99 0 -531.92 2329.28zm370.87 -5081.76l887.59 -427.75 -603.46 2641.36 -4876.52 0 4592.39 -2213.61zm-3670.47 457.06c0,-1085.18 261.93,-2147.64 761.11,-3099.76l1171.47 2038.46 -1927.08 1319.53c-3.28,-85.97 -5.5,-172.12 -5.5,-258.23zm3132.34 -795.91l-2139.7 1031.35 1655.34 -1133.47 -1041.79 -1812.79 1526.15 1914.91zm2929.54 -1411.88l-1233.41 594.32 -1198.29 577.61 -3032.86 -3805.56 5464.56 2633.63zm-625.23 -4357.9l-868.15 2199.04 -2253.47 -690.18c889.07,-767.11 1971.99,-1290.53 3121.62,-1508.86zm-334.25 3297.09l-2111.84 -1017.72 1896.33 580.77 748.27 -1895.4 -532.76 2332.35zm2709.79 449.48c0.03,0.03 0.03,0.07 0.03,0.14l219.71 962.41 -2431.55 -1172.03 1081.97 -4736.68 1129.84 4946.16zm3237.48 -2237.67l-2253.44 690.14 -868.19 -2199.08c1149.39,218.23 2232.27,741.65 3121.63,1508.94zm-2063.3 4959.7l-600.99 -2632.57 4382.03 -2111.76 -3781.04 4744.33zm4378.36 97.09c0,86.07 -2.22,172.22 -5.5,258.23l-1927.08 -1319.53 1171.47 -2038.46c499.14,952.08 761.11,2014.54 761.11,3099.76zm-3132.31 -795.91l1526.15 -1914.98 -1041.82 1812.86 1655.34 1133.47 -2139.67 -1031.35zm-2502.89 -4805.08l748.28 1895.44 1896.36 -580.77 -2111.84 1017.76 -532.8 -2332.43zm827.16 6043.05l-1047.61 1314.49 -1653.43 0 -1047.75 -1314.84 371.33 -1625.88 1503.33 -724.47 1502.83 724.33 371.3 1626.37zm1508.44 4182.61l-531.91 -2329.25 2396.98 0 -2012.53 307.48 147.46 2021.77zm-869.84 -2868.12l-997.06 0 1689.74 -2120.27 4398.68 2120.27 -5091.36 0zm4220.56 857.07l2766.06 -422.59 -542.15 -371.23c-13.65,-11.43 -28.43,-21.73 -44.45,-30.41l-1717.85 -1176.3c17.18,-202.57 26.21,-408.06 26.21,-613.09 0,-1286.05 -340.82,-2542.68 -986.68,-3645.08l1383.42 -2407.32 -611.79 187.36c-30.76,2.89 -61.42,11.04 -90.59,24.98l-16.2 7.72 -1931.91 591.68c-1085.54,-1028.7 -2477.95,-1701.3 -3952.6,-1909.51l-1014.97 -2570.87 -1014.94 2570.87c-1475.07,208.35 -2867.49,881.06 -3952.63,1909.51l-1931.88 -591.68 -16.2 -7.72c-29.17,-13.9 -59.83,-22.05 -90.59,-24.98l-611.79 -187.36 1383.42 2407.36c-645.86,1102.43 -986.68,2359.02 -986.68,3645.04 0,205.24 9.06,410.88 26.21,613.09l-1717.99 1176.34c-15.77,8.64 -30.34,18.73 -43.75,29.98l-542.71 371.62 2766.02 422.59c532.42,1369.34 1487.24,2561.24 2710.32,3383.6l-204.5 2804.48 2066.82 -1910.05c696.95,218.65 1423.07,329.6 2160.87,329.6 737.8,0 1463.92,-110.95 2160.87,-329.6l2066.85 1910.05 -204.54 -2804.52c1223.43,-822.67 2178.09,-2014.5 2710.32,-3383.56z"/>
 </g>
</svg>
